<?xml version="1.0" standalone="no"?>
<!DOCTYPE svg PUBLIC "-//W3C//DTD SVG 1.1//EN" "http://www.w3.org/Graphics/SVG/1.1/DTD/svg11.dtd" >
<svg xmlns="http://www.w3.org/2000/svg">
<metadata></metadata>
<defs>
<font id="eurostileregular" horiz-adv-x="1256" >
<font-face units-per-em="2048" ascent="1638" descent="-410" />
<missing-glyph horiz-adv-x="512" />
<glyph horiz-adv-x="0" />
<glyph unicode="&#xd;" horiz-adv-x="682" />
<glyph horiz-adv-x="0" />
<glyph horiz-adv-x="0" />
<glyph unicode=" "  horiz-adv-x="512" />
<glyph unicode="&#x09;" horiz-adv-x="512" />
<glyph unicode="&#xa0;" horiz-adv-x="512" />
<glyph unicode="!" horiz-adv-x="491" d="M160 1365h168l-20 -988h-131zM168 0v184h154v-184h-154z" />
<glyph unicode="&#x22;" horiz-adv-x="639" d="M93 1365h138l-20 -546h-99zM408 1365h138l-19 -546h-99z" />
<glyph unicode="#" d="M94 433l15 92h236l49 320h-236l16 92h236l67 428h108l-68 -428h303l68 428h109l-68 -428h234l-16 -92h-234l-48 -320h236l-16 -92h-236l-68 -433h-109l69 433h-304l-68 -433h-108l69 433h-236zM453 525h303l49 320h-303z" />
<glyph unicode="$" horiz-adv-x="1257" d="M55 425h151v-25q0 -183 52 -229q26 -23 92.5 -31.5t173.5 -13.5l48 -2v505q-308 0 -406 71q-97 70 -97 298q0 219 101 293q103 74 402 74v127h116v-127l57 -1q126 -2 210 -18.5t128 -51.5t66.5 -101.5t20.5 -166.5l-1 -43h-148l-1 34q-2 70 -13 114.5t-36 63.5 q-49 38 -226 38h-57v-474q305 0 408 -76q105 -77 105 -298t-100 -303q-50 -41 -141.5 -59.5t-227.5 -21.5l-44 -1v-154h-116v154h-99q-38 0 -69.5 1t-56.5 3q-292 22 -292 421zM216 1016q0 -162 59 -209q30 -24 95 -34t166 -13l36 -1v476h-47q-193 0 -251 -42 q-58 -40 -58 -177zM688 124q19 -3 32.5 -5t22.5 -3q311 -26 311 269q0 148 -63 195q-31 23 -97 33t-169 13l-37 1v-503z" />
<glyph unicode="%" horiz-adv-x="1609" d="M34 1032q0 216 53 277q54 61 246 61q204 0 251 -54q46 -52 46 -288q0 -235 -46 -293t-234 -58q-211 0 -264 59q-52 58 -52 296zM119 1041q0 -218 33 -255q34 -37 234 -37q159 0 159 159v118v111q0 109 -35 135t-179 26q-149 0 -180 -39q-32 -40 -32 -218zM295 0l921 1365 h99l-927 -1365h-93zM975 350q0 216 53 277q54 61 246 61q204 0 251 -54q46 -52 46 -288t-46 -294q-47 -57 -234 -57q-211 0 -264 59q-52 58 -52 296zM1060 359q0 -218 33 -255q34 -37 234 -37q159 0 159 159v118v111q0 109 -35 135t-179 26q-149 0 -180 -39 q-32 -40 -32 -218z" />
<glyph unicode="&#x26;" horiz-adv-x="1434" d="M117 421q0 181 48 253q25 36 72 60.5t118 40.5l41 9q-124 103 -124 239q0 191 85 260q85 70 321 70q229 0 314 -68q42 -34 64 -97t20 -157l-2 -85h-151v51q0 151 -41 189q-40 37 -210 37q-154 0 -203 -33q-50 -33 -50 -134q0 -57 22 -102t65 -80l34 -28l514 -428v28v56 v70v31h152l1 -36l1 -69q1 -55 -3.5 -103t-12.5 -91l239 -197l-84 -107l-202 167q-85 -181 -458 -181q-359 0 -465 80q-105 79 -105 355zM264 417q0 -209 60 -255q61 -46 334 -46q326 0 367 146l-533 439q-155 -35 -192 -80q-36 -45 -36 -204z" />
<glyph unicode="'" horiz-adv-x="323" d="M93 1365h138l-20 -546h-99z" />
<glyph unicode="(" horiz-adv-x="568" d="M103 478q0 645 45 770q23 63 92.5 95.5t186.5 29.5l38 -1v-130q-147 0 -175 -73q-29 -76 -28 -447l1 -244v-245q0 -374 28 -446q28 -73 174 -73v-130l-38 -1q-117 -3 -186.5 29.5t-92.5 95.5q-45 124 -45 770z" />
<glyph unicode=")" horiz-adv-x="568" d="M102 -286q145 0 173 73q29 75 29 446v245l1 244q1 188 -7 299t-22 148q-28 73 -174 73v130l38 1q117 3 186 -29.5t92 -95.5q46 -123 46 -770t-46 -770q-23 -63 -92 -95.5t-186 -29.5l-38 1v130z" />
<glyph unicode="*" horiz-adv-x="1257" d="M263 1074l35 100l280 -100v291h102v-291l278 100l36 -100l-281 -105l167 -238l-80 -60l-170 247l-183 -247l-80 60l175 238z" />
<glyph unicode="+" d="M155 617v130h403v409h140v-409h403v-130h-403v-407h-140v407h-403z" />
<glyph unicode="," horiz-adv-x="406" d="M109 -123q43 2 65.5 24t20.5 64l-1 35h-65v184h154v-198q0 -187 -136 -187q-7 0 -16 0.5t-22 1.5v76z" />
<glyph unicode="-" horiz-adv-x="425" d="M0 432l3 130h422v-130h-425z" />
<glyph unicode="." horiz-adv-x="400" d="M123 0v184h154v-184h-154z" />
<glyph unicode="/" horiz-adv-x="1323" d="M-136 -410l1201 1775h114l-1200 -1775h-115z" />
<glyph unicode="0" d="M93 732q0 450 82 548q82 99 453 99q379 0 457 -102q78 -101 78 -594q0 -469 -74 -570q-94 -127 -461 -127t-461 127q-74 101 -74 619zM240 683q0 -419 50 -493q51 -74 338 -74t337 74q51 73 51 493q0 418 -51 492q-50 74 -337 74t-338 -74q-50 -74 -50 -492z" />
<glyph unicode="1" horiz-adv-x="1257" d="M210 955l378 410h222v-1365h-154v1250l-349 -387z" />
<glyph unicode="2" d="M111 0v257q0 215 84 283q83 67 399 103q252 29 304 76q53 48 53 249q0 175 -59 228t-255 53q-247 0 -311 -43q-32 -21 -49 -72t-15 -132l2 -102h-151l1 71q2 123 26.5 204t76.5 122q103 82 415 82q277 0 371 -88q95 -89 95 -343q0 -245 -89 -328t-384 -111 q-261 -26 -310 -72q-50 -47 -50 -261v-46h829v-130h-983z" />
<glyph unicode="3" d="M105 363v81h150v-79q0 -174 59 -212q58 -37 335 -37q213 0 271 47q57 48 57 228q0 151 -54 196q-53 46 -235 46h-130h-58v131l52 -1q139 -3 222.5 7.5t114.5 27.5q62 35 62 191q0 179 -54 220q-52 40 -295 40q-224 0 -276 -39t-52 -205v-59h-146l1 54q2 118 23.5 194 t67.5 112q91 73 384 73q300 0 397 -68q97 -67 97 -278q0 -180 -46 -245q-47 -67 -184 -83v-7q156 -21 205 -84q51 -63 51 -234q0 -238 -99 -316q-98 -78 -397 -78q-323 0 -423 72t-100 305z" />
<glyph unicode="4" d="M54 315v181l680 869h238v-920h204v-130h-204v-315h-154v315h-764zM181 445h637v821h-3z" />
<glyph unicode="5" d="M133 338v52h145q0 -186 57 -230t294 -44q246 0 302 57q55 56 55 312q0 206 -62 262q-62 57 -285 57q-312 0 -342 -131h-139v692h919v-130h-766l-7 -414h3q80 113 359 113q270 0 368 -93q99 -93 99 -350q0 -315 -94 -410q-93 -95 -398 -95q-302 0 -406 71 q-102 70 -102 281z" />
<glyph unicode="6" horiz-adv-x="1255" d="M99 714l4 220q2 136 24 224.5t70 132.5q94 88 384 88q293 0 397 -65q53 -32 80 -94t25 -153l-1 -47h-150q2 19 3 31t1 18q0 110 -55 144q-56 36 -225 36q-257 0 -327 -44q-68 -44 -68 -209v-278h3q87 122 393 122q275 0 368 -84t93 -332q0 -269 -97 -354 q-98 -84 -406 -84q-314 0 -414 92q-50 47 -73.5 143t-25.5 245zM246 472q0 -240 60 -298q59 -58 307 -58q240 0 299 47t59 241q0 208 -58 257t-305 49q-225 0 -294 -45q-68 -45 -68 -193z" />
<glyph unicode="7" d="M98 1235v130h995v-196l-661 -1169h-183l716 1235h-867z" />
<glyph unicode="8" horiz-adv-x="1257" d="M104 373q0 178 45 243q44 63 192 92v3q-135 28 -177 89t-42 227q0 216 92 284t386 68q324 0 416 -66q92 -65 92 -297q0 -155 -44 -217t-174 -90v-3q143 -28 188 -90t45 -225q0 -250 -94 -328q-95 -77 -397 -77q-333 0 -431 71q-97 72 -97 316zM251 383q0 -165 42 -214 q41 -48 181 -50l193 -3l128 8q56 4 92.5 22.5t53.5 45.5q35 55 35 212q0 153 -65 194t-307 41q-237 0 -295 -42t-58 -214zM269 1007q0 -164 62 -202q61 -36 341 -36q187 0 237 46q52 46 52 211q0 153 -57 188q-56 35 -302 35q-234 0 -283 -37q-50 -36 -50 -205z" />
<glyph unicode="9" horiz-adv-x="1257" d="M101 291q0 16 3 57h145l-1 -40q-2 -63 14 -102.5t46 -56.5q60 -33 286 -33q257 0 315 50q57 51 57 280v205h-3q-80 -122 -410 -122q-259 0 -350 83q-90 82 -90 322q0 273 95 359t399 86q312 0 413 -89q51 -45 75 -135.5t26 -229.5l4 -367l-3 -141q-3 -132 -26 -218 t-73 -129q-99 -84 -407 -84q-302 0 -409 62q-106 63 -106 243zM260 955q0 -193 54 -245q54 -51 258 -51q264 0 329 41q64 42 64 213q0 229 -59 282q-59 54 -313 54q-223 0 -278 -49q-55 -48 -55 -245z" />
<glyph unicode=":" horiz-adv-x="400" d="M123 0v184h154v-184h-154zM123 772v184h154v-184h-154z" />
<glyph unicode=";" horiz-adv-x="365" d="M68 -123q43 2 65.5 24t20.5 64l-1 35h-65v184h154v-198q0 -187 -136 -187q-7 0 -16 0.5t-22 1.5v76zM78 772v184h154v-184h-154z" />
<glyph unicode="&#x3c;" horiz-adv-x="887" d="M0 628v122l887 413v-140l-737 -334l737 -335v-139z" />
<glyph unicode="=" d="M155 447v130h946v-130h-946zM155 788v130h946v-130h-946z" />
<glyph unicode="&#x3e;" horiz-adv-x="887" d="M0 215v140l737 334l-737 334v139l887 -413v-122z" />
<glyph unicode="?" horiz-adv-x="1064" d="M109 938l1 45q3 123 23 202.5t63 117.5q86 76 365 76q234 0 317 -77t83 -295q0 -312 -193 -381l-84 -30q-134 -49 -137 -168l-1 -34h-151l1 30q2 69 10.5 116.5t27.5 74.5q38 53 171 104l83 32q126 48 126 242q0 168 -47 212t-229 44q-188 0 -237 -46q-24 -23 -37 -79 t-11 -147l1 -39h-145zM387 0v184h154v-184h-154z" />
<glyph unicode="@" horiz-adv-x="1290" d="M82 623q0 381 103 483t487 102q340 0 437 -85q99 -86 99 -379q0 -269 -39 -369t-143 -100q-145 0 -168 110h-4q-48 -116 -243 -116q-151 0 -206 76q-56 77 -56 280q0 197 56 271q57 73 209 73q177 0 220 -94h3v94h102v-471l2 -43q2 -54 21.5 -81t61.5 -27q99 0 99 351 q0 297 -67 358q-68 63 -384 63q-353 0 -430 -74q-75 -74 -75 -420q0 -367 83 -450q83 -82 461 -82q257 0 300 82l68 -49q-60 -105 -385 -105q-395 0 -504 106q-108 106 -108 496zM451 622q0 -171 35 -227q34 -54 147 -54q134 0 169 56q34 56 34 283q0 217 -193 217 q-122 0 -157 -50t-35 -225z" />
<glyph unicode="A" horiz-adv-x="1246" d="M10 0l500 1365h216l510 -1365h-161l-106 289h-691l-105 -289h-163zM322 405h602l-303 834z" />
<glyph unicode="B" horiz-adv-x="1264" d="M130 0v1365h604q251 0 328 -69q78 -69 78 -292q0 -227 -175 -287v-3q217 -52 217 -321q0 -216 -86 -305q-85 -88 -297 -88h-669zM284 130h327l139 1q178 2 230 45q55 46 55 193q0 184 -55 224q-56 42 -299 42h-397v-505zM284 765h405q193 0 248 46q56 47 56 205 q0 138 -49 178q-49 41 -213 41h-447v-470z" />
<glyph unicode="C" horiz-adv-x="1222" d="M76 685q0 354 21 446t120 164q115 84 501 84q261 0 351 -81q46 -41 67 -118.5t24 -194.5l1 -37h-153l-1 42q-2 83 -14.5 136t-39.5 76q-53 47 -241 47q-330 0 -403 -55t-73 -305q0 -576 49 -674q49 -99 335 -99q272 0 339 43q34 21 52 75q16 48 16 124v17l-2 81h153v-52 q0 -278 -95 -349q-95 -69 -478 -69q-343 0 -436 122q-93 123 -93 577z" />
<glyph unicode="D" horiz-adv-x="1338" d="M130 0v1365h632q293 0 397 -129q104 -130 104 -494q0 -444 -93 -593q-92 -149 -369 -149h-671zM284 130h445q245 0 316 98t71 437q0 371 -62 471q-62 99 -294 99h-476v-1105z" />
<glyph unicode="E" horiz-adv-x="1020" d="M75 0v1365h877v-130h-723v-465h693v-130h-693v-510h723v-130h-877z" />
<glyph unicode="F" horiz-adv-x="1001" d="M130 0v1365h837v-130h-683v-477h665v-130h-665v-628h-154z" />
<glyph unicode="G" horiz-adv-x="1268" d="M75 755l1 121q2 152 29.5 252t84.5 151q115 100 462 100q348 0 449 -66q101 -65 101 -292v-52h-151v34q0 165 -69 206q-69 40 -357 40q-267 0 -334 -64q-34 -32 -49.5 -110.5t-17.5 -206.5l-2 -181l1 -195q2 -259 74 -317q76 -59 398 -59q246 0 305 56t59 293q0 10 -2 31 t-6 53h-434v130h585q2 -26 3 -63.5t1 -85.5q0 -369 -91 -457q-90 -87 -472 -87q-361 0 -464 103q-52 52 -77 167.5t-26 297.5z" />
<glyph unicode="H" horiz-adv-x="1365" d="M130 0v1365h154v-602h798v602h154v-1365h-154v633h-798v-633h-154z" />
<glyph unicode="I" horiz-adv-x="417" d="M130 0v1365h154v-1365h-154z" />
<glyph unicode="J" horiz-adv-x="1028" d="M53 335q0 93 3 162h151v-25v-105q0 -167 45 -209t222 -42q176 0 222 55q48 55 48 256v938h154v-963q0 -241 -88 -329q-89 -87 -330 -87q-244 0 -336 74q-91 75 -91 275z" />
<glyph unicode="K" horiz-adv-x="1235" d="M130 0v1365h154v-596h135l560 596h199l-624 -658l700 -707h-211l-624 639h-135v-639h-154z" />
<glyph unicode="L" horiz-adv-x="993" d="M130 0v1365h154v-1222h702v-143h-856z" />
<glyph unicode="M" horiz-adv-x="1757" d="M130 0v1365h267l364 -883l58 -143l29 -71l28 -71h4l28 71q10 26 17 43.5l11 27.5l59 142l362 884h271v-1365h-154v1092v82l1 41l1 41h-4l-12 -32l-12 -31l-26 -64l-465 -1129h-154l-466 1116l-27 63l-12 32l-12 31h-4l1 -37l1 -38v-75v-1092h-154z" />
<glyph unicode="N" horiz-adv-x="1426" d="M130 0v1365h252l499 -814l130 -214l65 -106l64 -107h4l-1 51l-1 52v102v1036h154v-1365h-253l-572 929l-93 153l-46 76l-46 76h-4l1 -51l1 -52v-102v-1029h-154z" />
<glyph unicode="O" d="M47 683v96l2 129q2 137 31.5 229t90.5 142q122 100 458 100q386 0 484 -113q97 -112 97 -565q0 -487 -93 -601t-488 -114q-393 0 -488 113q-94 112 -94 584zM194 683q0 -424 55 -495q55 -72 379 -72t380 72q55 71 55 495v89l-1 129q-1 114 -19.5 185t-56.5 102 q-76 61 -358 61q-324 0 -379 -72q-55 -71 -55 -494z" />
<glyph unicode="P" horiz-adv-x="1208" d="M130 0v1365h573h52q231 0 315 -89t84 -333q0 -234 -88 -319q-44 -43 -125.5 -63t-202.5 -22l-60 -1h-394v-538h-154zM284 668h365q228 0 293 47t65 216q0 197 -44 250q-22 26 -73 38.5t-133 14.5l-59 1h-414v-567z" />
<glyph unicode="Q" horiz-adv-x="1342" d="M48 738q0 417 101 529q100 112 481 112q386 0 484 -113q97 -112 97 -565q0 -341 -25 -444l136 -90l-63 -105l-122 79q-110 -155 -507 -155q-406 0 -494 114q-88 115 -88 638zM195 683q0 -424 55 -495q55 -72 377 -72q320 0 388 105l-409 268l71 105l373 -247 q14 76 14 258q0 494 -51 569q-50 75 -384 75q-324 0 -379 -72q-55 -71 -55 -494z" />
<glyph unicode="R" horiz-adv-x="1276" d="M130 0v1365h650q220 0 310 -87t90 -302q0 -190 -49 -264q-50 -74 -187 -96v-3q217 -16 217 -264v-349h-154v314q0 239 -207 239h-51h-465v-553h-154zM284 683h445q175 0 240 53q64 54 64 202q0 185 -48 241q-47 56 -203 56h-498v-552z" />
<glyph unicode="S" horiz-adv-x="1146" d="M61 422h153v-34q0 -183 56 -228q56 -44 287 -44q264 0 326 44q61 45 61 238q0 124 -42 166q-21 21 -64 34t-109 16l-160 8l-152 8q-174 9 -260.5 100t-86.5 260q0 233 101 311q100 78 403 78q307 0 399 -73q93 -72 93 -311h-153q0 166 -55 209q-56 45 -259 45 q-242 0 -312 -43q-70 -42 -70 -189q0 -165 55 -201q57 -37 327 -49q161 -8 261.5 -27.5t143.5 -53.5q87 -68 87 -300q0 -253 -100 -326q-100 -74 -439 -74q-295 0 -393 74q-49 38 -72 112.5t-25 188.5z" />
<glyph unicode="T" horiz-adv-x="1054" d="M7 1222v143h1040v-143h-441v-1222h-154v1222h-445z" />
<glyph unicode="U" horiz-adv-x="1341" d="M131 363v46v956h154v-956q0 -195 63 -244q62 -49 310 -49q268 0 334 48q66 49 66 245v956h154v-956q0 -260 -105 -342q-104 -81 -438 -81q-314 0 -426 78q-112 79 -112 299z" />
<glyph unicode="V" horiz-adv-x="1171" d="M-10 1365h164l364 -1031l36 -105l33 -105h4q15 51 31.5 102.5t35.5 105.5l358 1033h165l-483 -1365h-220z" />
<glyph unicode="W" horiz-adv-x="2045" d="M3 1365h158l294 -981l40 -133l20 -66l19 -67h3l19 67l19 66l39 132l290 982h228l288 -983l39 -131l18 -67l19 -66h3l20 67l20 67l41 134l300 979h161l-430 -1365h-234l-287 983l-36 123l-17 61l-18 62h-3l-17 -62l-18 -62l-37 -124l-292 -981h-230z" />
<glyph unicode="X" horiz-adv-x="1190" d="M-10 0l488 706l-449 659h186l303 -455l42 -64l21 -32l20 -32h4l20 31q8 14 13 22t7 10l41 63l299 457h182l-436 -659l469 -706h-182l-316 478l-50 75l-23 37l-24 38h-4l-24 -39q-9 -15 -16 -24t-9 -14l-52 -76l-321 -475h-189z" />
<glyph unicode="Y" horiz-adv-x="1152" d="M-10 1365h179l293 -461l56 -89q5 -8 12.5 -19t15.5 -25l27 -45h4l27 45l27 44l57 89l292 461h183l-516 -795v-570h-154v570z" />
<glyph unicode="Z" horiz-adv-x="1161" d="M48 0v133l857 1099v3h-832v130h1022v-130l-859 -1102v-3h877v-130h-1065z" />
<glyph unicode="[" horiz-adv-x="567" d="M113 -410v1775h349v-116h-195v-1543h195v-116h-349z" />
<glyph unicode="\" horiz-adv-x="1323" d="M-136 1365h115l1200 -1775h-114z" />
<glyph unicode="]" horiz-adv-x="567" d="M105 -294h195v1543h-195v116h349v-1775h-349v116z" />
<glyph unicode="^" horiz-adv-x="914" d="M0 752l365 617h184l365 -617h-153l-306 506l-303 -506h-152z" />
<glyph unicode="_" horiz-adv-x="1024" d="M0 -136h1024v-130h-1024v130z" />
<glyph unicode="`" horiz-adv-x="1024" d="M286 1253l72 98l271 -205l-49 -74z" />
<glyph unicode="a" horiz-adv-x="1044" d="M89 277q0 173 81 239t293 66q252 0 302 -99l3 1v116q0 164 -45 212q-45 49 -197 49q-258 0 -258 -145v-10.5t1 -17.5h-139q0 167 75 224q76 58 296 58q238 0 323 -71q84 -71 84 -268v-631h-140l11 103l-3 1q-79 -118 -325 -118q-362 0 -362 291zM236 293q0 -117 48 -154 q47 -37 195 -37q296 0 296 180q0 113 -58 152q-57 39 -223 39q-161 0 -210 -34q-48 -35 -48 -146z" />
<glyph unicode="b" horiz-adv-x="1047" d="M123 0v1365h140v-531l3 -3q48 139 314 139q211 0 290 -109q80 -110 80 -395q0 -272 -85 -376q-84 -104 -305 -104q-225 0 -300 133l-4 -1l7 -118h-140zM267 503q0 -259 50 -330q51 -71 233 -71q153 0 203 72q50 74 50 298q0 238 -49 309q-49 73 -210 73q-165 0 -221 -71 t-56 -280z" />
<glyph unicode="c" horiz-adv-x="993" d="M95 483q0 284 84 385q85 102 322 102q232 0 318 -69q85 -67 85 -257h-140v25q0 111 -55 148t-219 37q-158 0 -203 -70q-45 -71 -45 -314q0 -239 51 -303q53 -65 241 -65q159 0 203 42q43 43 43 201h140l1 -52v-9q-1 -148 -99 -222q-102 -76 -303 -76q-259 0 -341 97 q-83 98 -83 400z" />
<glyph unicode="d" horiz-adv-x="1045" d="M97 492q0 269 81 373q81 105 290 105q261 0 311 -135l3 2v528h140v-1365h-140l7 124l-4 1q-66 -139 -307 -139q-220 0 -301 107q-80 107 -80 399zM244 493q0 -241 50 -316q49 -75 210 -75q172 0 225 75q52 76 52 329q0 204 -58 276q-59 72 -222 72q-155 0 -206 -72 q-51 -71 -51 -289z" />
<glyph unicode="e" horiz-adv-x="1029" d="M95 488q0 286 83 384t325 98q264 0 346 -85t82 -358v-75h-688q0 -227 48 -288q50 -62 227 -62q169 0 219 29q51 30 51 128v30h143l1 -35v-12q0 -67 -22 -115q-24 -52 -69 -82q-91 -59 -317 -59q-265 0 -347 96q-82 97 -82 406zM245 561h543l-1 45q-2 78 -13.5 128 t-37.5 73q-52 47 -220 47q-170 0 -221 -55q-50 -55 -50 -238z" />
<glyph unicode="f" horiz-adv-x="543" d="M14 840v116h146v142q0 281 289 281q22 0 47 -1.5t54 -5.5v-116q-34 4 -58.5 5.5t-40.5 1.5q-151 0 -151 -152v-155h250v-116h-250v-840h-140v840h-146z" />
<glyph unicode="g" horiz-adv-x="1045" d="M96 472q0 287 81 392q82 106 303 106q235 0 307 -144l3 1l-7 129h140v-1018q0 -208 -90 -286t-330 -78q-214 0 -292 66t-78 247h135q0 -123 45 -160q46 -37 200 -37q159 0 215 48q55 48 55 188v192l-3 1q-54 -133 -312 -133q-212 0 -292 104q-80 106 -80 382zM243 480 q0 -238 49 -308t214 -70q167 0 220 77q53 79 53 323q0 216 -53 284t-220 68q-165 0 -214 -70q-49 -68 -49 -304z" />
<glyph unicode="h" horiz-adv-x="1053" d="M123 0v1365h140v-527l3 -2q53 134 296 134q360 0 360 -320v-39v-611h-140v611v27q0 216 -221 216q-178 0 -238 -64q-60 -63 -60 -252v-538h-140z" />
<glyph unicode="i" horiz-adv-x="385" d="M123 0v956h140v-956h-140zM123 1208v157h140v-157h-140z" />
<glyph unicode="j" horiz-adv-x="381" d="M-10 -260q6 1 10 1.5t6 0.5l18 1l58 19q32 27 32 150v1044h140v-1044v-41q0 -237 -197 -237q-14 0 -31 1.5t-36 5.5v99zM114 1208v157h140v-157h-140z" />
<glyph unicode="k" horiz-adv-x="881" d="M123 0v1365h140v-793h64l338 384h176l-409 -439l483 -517h-189l-406 463h-57v-463h-140z" />
<glyph unicode="l" horiz-adv-x="386" d="M123 0v1365h140v-1365h-140z" />
<glyph unicode="m" horiz-adv-x="1691" d="M123 0v956h140l-3 -144l3 -3q81 161 312 161q242 0 295 -161h4q90 161 329 161q338 0 338 -345v-625h-140v638q0 126 -45 171t-170 45q-167 0 -225 -63q-59 -62 -59 -238v-553h-140v625l-2 44q-5 93 -55 139t-156 46q-286 0 -286 -311v-543h-140z" />
<glyph unicode="n" horiz-adv-x="1056" d="M123 0v956h135l-4 -130l4 -3q64 147 318 147q205 0 277 -72q73 -72 73 -276v-622h-140v610v36q0 123 -47 165q-46 43 -181 43q-295 0 -295 -279v-575h-140z" />
<glyph unicode="o" horiz-adv-x="1036" d="M96 478q0 309 79 400q80 92 343 92q264 0 344 -92q79 -91 79 -400t-79 -400q-80 -92 -344 -92q-263 0 -343 92q-79 91 -79 400zM243 478q0 -256 44 -316q43 -60 231 -60q187 0 231 60q45 61 45 316q0 253 -45 315q-45 61 -231 61t-231 -61q-44 -61 -44 -315z" />
<glyph unicode="p" horiz-adv-x="1045" d="M123 -410v1366h140l-7 -121l4 -3q73 138 314 138q213 0 293 -108q80 -109 80 -398q0 -269 -81 -374q-81 -104 -288 -104q-236 0 -312 127h-3v-523h-140zM265 470q0 -222 55 -295t221 -73q158 0 208 71q51 70 51 293q0 245 -49 316q-50 72 -216 72q-168 0 -219 -73 q-51 -72 -51 -311z" />
<glyph unicode="q" horiz-adv-x="1044" d="M96 479q0 278 82 384q83 107 295 107q233 0 313 -135l3 3l-7 118h140v-1366h-140v526l-3 3q-63 -133 -314 -133q-207 0 -288 108t-81 385zM243 465q0 -223 50 -294q49 -69 210 -69q163 0 219 71q56 73 56 282q0 253 -52 326t-231 73q-155 0 -204 -75q-48 -75 -48 -314z " />
<glyph unicode="r" horiz-adv-x="816" d="M137 0v956h140l-14 -110l3 -3q82 135 274 135q134 0 200 -68q65 -66 64 -196v-8l-1 -66h-138l3 24q2 19 2.5 31.5t0.5 19.5q0 147 -160 147q-234 0 -234 -289v-573h-140z" />
<glyph unicode="s" horiz-adv-x="970" d="M79 252l1 52h145l1 -45q2 -95 48 -126q47 -31 189 -31q173 0 227 33q55 33 55 138q0 151 -137 151q-320 0 -420 54t-100 224q0 162 79 214q79 54 317 54q380 0 380 -229v-35h-140q0 100 -41 124t-208 24q-155 0 -198 -26q-42 -26 -42 -122q0 -147 141 -154l113 -6l143 -7 q260 -12 260 -272q0 -161 -86 -221t-315 -60q-236 0 -324 57q-45 29 -67 81q-21 48 -21 116v12z" />
<glyph unicode="t" horiz-adv-x="667" d="M-10 840v116h132v230h140v-230h368v-116h-368v-585q0 -153 136 -153q68 0 100.5 34t34.5 103l1 47l2 53h130l1 -71v-8q1 -136 -65 -204q-68 -70 -203 -70q-277 0 -277 235v34v585h-132z" />
<glyph unicode="u" horiz-adv-x="1039" d="M123 320v636h140v-636q0 -131 43 -174q44 -44 169 -44q164 0 226 65q62 67 62 241v548h140v-956h-140l10 125l-3 3q-73 -142 -312 -142q-335 0 -335 334z" />
<glyph unicode="v" horiz-adv-x="824" d="M-7 956h144l169 -520l53 -163l25 -82l26 -82h4l24 81l24 82l51 162l162 522h156l-320 -956h-201z" />
<glyph unicode="w" horiz-adv-x="1373" d="M7 956h147l135 -529l42 -166l20 -83l20 -83h4l19 83l20 83l40 165l131 530h204l130 -531l40 -165l19 -82l19 -83h3l21 83l20 83l42 166l134 529h150l-268 -956h-208l-128 531l-39 162l-18 81l-19 81h-3l-19 -81l-19 -81l-39 -162l-129 -531h-212z" />
<glyph unicode="x" horiz-adv-x="827" d="M-7 0l347 500l-311 456h168l217 -349l216 349h167l-310 -450l347 -506h-167l-253 386l-254 -386h-167z" />
<glyph unicode="y" horiz-adv-x="796" d="M-7 956h149l147 -426l74 -212l36 -107l37 -106h4l26 106l25 107l54 212l108 426h149l-271 -1011q-57 -215 -127 -294q-69 -80 -198 -80q-13 0 -30 1.5t-37 5.5v116q14 -3 26.5 -4.5t22.5 -2.5h7q109 0 161 183l27 94l9 36h-53z" />
<glyph unicode="z" horiz-adv-x="826" d="M44 0v133l572 707h-524v116h689v-136l-570 -704h570v-116h-737z" />
<glyph unicode="{" horiz-adv-x="783" d="M171 422v113q117 34 117 188v337q0 305 237 305h88v-111q-185 0 -185 -197v-341q0 -177 -128 -237q128 -62 128 -238v-341q0 -197 171 -197h14v-113h-88q-237 0 -237 307v338q0 152 -117 187z" />
<glyph unicode="|" horiz-adv-x="140" d="M0 -341v1706h140v-1706h-140z" />
<glyph unicode="}" horiz-adv-x="783" d="M171 -299q189 0 189 197v341q0 176 128 238q-128 60 -128 237v341q0 197 -175 197h-14v113h90q239 0 239 -307v-338q0 -152 113 -187v-113q-113 -36 -113 -187v-338q0 -305 -239 -305h-90v111z" />
<glyph unicode="~" horiz-adv-x="984" d="M0 1250q115 232 279 232q76 0 230 -74q141 -69 202 -69q101 0 187 147l86 -51q-114 -226 -286 -226q-74 0 -174 47l-118 55q-87 41 -139 41q-101 0 -183 -156z" />
<glyph unicode="&#xa1;" horiz-adv-x="491" d="M162 -410l20 989h131l17 -989h-168zM162 772v184h154v-184h-154z" />
<glyph unicode="&#xa2;" horiz-adv-x="1255" d="M183 658q0 460 363 460v133h116v-133q169 0 254 -69t82 -209l-1 -44h-140q0 127 -36 165q-35 38 -159 44v-750q108 0 160 47t54 142l1 53h140l-1 -37q-5 -161 -90.5 -241t-263.5 -80v-146h-116v146q-211 0 -287 109t-76 410zM330 668q0 -258 39 -331q38 -72 177 -80v751 q-135 -11 -175 -75q-41 -65 -41 -265z" />
<glyph unicode="&#xa3;" horiz-adv-x="1257" d="M95 534v130h169v208l-2 121l7 113q4 69 35 120t86.5 85t134 51t177.5 17q266 0 364 -75q50 -38 76 -106.5t23 -170.5l-2 -70h-148v34q0 169 -50 213q-50 45 -237 45q-205 0 -257 -45q-26 -22 -38 -75.5t-14 -140.5l-1 -50v-274h387v-130h-387v-64l1 -109l-15 -122 q-18 -61 -100 -119v-3l885 10v-127h-1062v117q137 30 137 304v113h-169z" />
<glyph unicode="&#xa4;" horiz-adv-x="1365" d="M114 1217l80 80l193 -193q143 107 299 107q151 0 290 -106l194 191l79 -79l-192 -191q105 -143 105 -294q0 -150 -103 -289l193 -193l-79 -80l-193 193q-137 -105 -297 -105q-146 0 -293 105l-192 -193l-79 80l190 193q-104 137 -104 290q0 151 104 291zM338 733 q0 -143 101 -244t245 -101q142 0 243 101q102 102 102 244q0 145 -101 246q-101 102 -244 102q-145 0 -245 -102q-101 -103 -101 -246z" />
<glyph unicode="&#xa5;" horiz-adv-x="1257" d="M69 1365h179l376 -638h4l376 638h183l-267 -431h186v-130h-264l-125 -201h389v-130h-408v-473h-154v473h-394v130h375l-121 201h-254v130h178z" />
<glyph unicode="&#xa6;" horiz-adv-x="140" d="M0 314h140v-655h-140v655zM0 686v679h140v-679h-140z" />
<glyph unicode="&#xa7;" horiz-adv-x="1257" d="M154 559q0 204 156 240q-103 66 -103 241q0 209 76 273q76 66 322 66q306 0 386 -62t80 -300h-134l-1 56q-2 113 -57 144q-58 32 -257 32q-183 0 -233 -32q-49 -31 -49 -149q0 -149 100 -179l88 -26l306 -91q88 -26 142.5 -50t77.5 -47q46 -46 46 -171q0 -214 -132 -269 q135 -65 135 -270q0 -223 -91 -290q-91 -68 -387 -68q-293 0 -378 70q-86 71 -86 309h138q0 -168 49 -208q50 -41 254 -41q247 0 307 36q61 36 61 182q0 95 -33 130q-34 36 -158 68l-421 111q-126 33 -165 90q-20 29 -29.5 80t-9.5 125zM287 555q0 -127 152 -169l308 -86 q63 -17 102 -17q118 0 118 209q0 100 -163 148l-295 87q-71 21 -102 21q-120 0 -120 -193z" />
<glyph unicode="&#xa8;" horiz-adv-x="1024" d="M250 1126v130h154v-130h-154zM620 1126v130h154v-130h-154z" />
<glyph unicode="&#xa9;" horiz-adv-x="1527" d="M68 683q0 288 204 492t493 204q286 0 489 -204q204 -204 204 -492t-204 -493q-203 -204 -489 -204q-289 0 -493 204t-204 493zM153 683q0 -258 179 -442q178 -183 432 -183q251 0 430 183q179 184 179 442q0 260 -178 441q-179 183 -431 183q-254 0 -432 -183 q-179 -182 -179 -441zM437 690q0 277 57 336q57 60 322 60q132 0 195.5 -56.5t67.5 -170.5l1 -28h-103v30q0 88 -30 112q-29 24 -137 24q-190 0 -231 -29q-40 -28 -40 -164q0 -318 27 -370q27 -53 190 -53q157 0 194 22q39 24 38 114l-1 52h103l-1 -36q-2 -81 -15 -131 t-42 -70q-55 -40 -280 -40q-205 0 -260 70t-55 328z" />
<glyph unicode="&#xaa;" horiz-adv-x="837" d="M117 642l2 82h572v-82h-574zM147 979q0 177 231 177q123 0 176 -41v45q0 89 -26 115t-116 26q-72 0 -109 -19t-35 -57l1 -23h-98q0 102 46 136q47 35 184 35q255 0 255 -196v-358h-103l6 45q-64 -53 -179 -53q-233 0 -233 168zM249 986q0 -103 145 -103q164 0 164 97 q0 104 -162 104q-147 0 -147 -98z" />
<glyph unicode="&#xab;" horiz-adv-x="915" d="M102 525l246 522l105 -64l-215 -458l238 -459l-99 -66zM438 525l246 522l105 -64l-215 -458l238 -459l-99 -66z" />
<glyph unicode="&#xac;" horiz-adv-x="887" d="M0 416v130h887v-546h-140v416h-747z" />
<glyph unicode="&#xad;" horiz-adv-x="425" d="M0 432l3 130h422v-130h-425z" />
<glyph unicode="&#xae;" horiz-adv-x="1527" d="M68 683q0 288 204 492t493 204q286 0 489 -204q204 -204 204 -492t-204 -493q-203 -204 -489 -204q-289 0 -493 204t-204 493zM153 683q0 -258 179 -442q178 -183 432 -183q251 0 430 183q179 184 179 442q0 260 -178 441q-179 183 -431 183q-254 0 -432 -183 q-179 -182 -179 -441zM452 300v779h384q238 0 238 -228q0 -166 -107 -202q96 -33 96 -150v-199h-102v179q0 125 -114 125h-29h-264v-304h-102zM554 696h252q166 0 166 134q0 100 -25 128q-26 29 -110 29h-283v-291z" />
<glyph unicode="&#xb0;" horiz-adv-x="749" d="M93 1105q0 116 82 195q82 81 200 81q115 0 198 -81t83 -195t-83 -195t-198 -81q-118 0 -200 81t-82 195zM178 1105q0 -192 197 -192q196 0 196 192t-196 192q-197 0 -197 -192z" />
<glyph unicode="&#xb1;" horiz-adv-x="1257" d="M148 124v143h960v-143h-960zM148 753v143h404v354h154v-354h402v-143h-402v-350h-154v350h-404z" />
<glyph unicode="&#xb2;" horiz-adv-x="826" d="M80 544v160q0 132 55 172q55 42 258 63q157 16 190 43q31 27 31 143q0 101 -36 130q-37 29 -167 29q-146 0 -185 -24q-39 -25 -38 -115l1 -68h-108l1 49q2 73 17.5 122t48.5 74q66 51 257 51q186 0 248 -53q63 -53 63 -208q0 -147 -58 -198q-58 -50 -247 -68 q-160 -15 -191 -41q-30 -26 -30 -149v-20h523v-92h-633z" />
<glyph unicode="&#xb3;" horiz-adv-x="826" d="M76 822h108v-54q0 -137 125 -139l140 -2l93 7q45 3 66.5 42t21.5 107q0 135 -179 135h-82h-44v93l40 -1q88 -2 140 3.5t71 15.5q37 19 37 108q0 102 -32 125q-31 22 -183 22q-143 0 -172 -22q-30 -23 -30 -124v-34h-105v39q0 141 59 185q60 45 247 45q97 0 160.5 -11 t94.5 -31q63 -42 63 -169q0 -171 -117 -196q134 -23 134 -188q0 -144 -64 -192q-65 -48 -255 -48q-206 0 -271 44q-32 23 -47.5 69t-17.5 117z" />
<glyph unicode="&#xb4;" horiz-adv-x="1024" d="M395 1146l271 205l72 -98l-295 -181z" />
<glyph unicode="&#xb5;" horiz-adv-x="825" d="M0 -342v1325h140v-559q0 -341 268 -341q277 0 277 360v540h140v-983h-140v180q-92 -206 -280 -206q-169 0 -265 152v-468h-140z" />
<glyph unicode="&#xb6;" horiz-adv-x="1260" d="M96 939q0 246 85 335q85 91 314 91h52h545v-1775h-140v1645h-160v-1645h-140v945h-80l-47 1q-125 3 -209 22.5t-130 62.5q-90 85 -90 318z" />
<glyph unicode="&#xb8;" horiz-adv-x="1024" d="M403 -307l121 207l97 -54l-139 -195z" />
<glyph unicode="&#xb9;" horiz-adv-x="817" d="M140 1116l245 249h141v-819h-102v727l-213 -220z" />
<glyph unicode="&#xba;" horiz-adv-x="837" d="M132 642l2 82h572v-82h-574zM152 1099q0 177 50 232q51 55 217 55q165 0 216 -55q51 -56 51 -233q0 -178 -51 -233q-50 -54 -216 -54q-168 0 -217 54q-50 54 -50 234zM268 1099q0 -136 23 -168q24 -31 128 -31q103 0 127 31t24 168q0 134 -24 166t-127 32t-127 -32 t-24 -166z" />
<glyph unicode="&#xbb;" horiz-adv-x="915" d="M102 66l238 459l-215 458l105 64l246 -522l-275 -525zM438 66l238 459l-215 458l105 64l246 -522l-275 -525z" />
<glyph unicode="&#xbc;" horiz-adv-x="1924" d="M140 1116l245 249h141v-819h-102v727l-213 -220zM447 0l922 1365h108l-926 -1365h-104zM1143 186v118l440 515h152v-541h129v-92h-129v-186h-102v186h-490zM1246 278h387v460z" />
<glyph unicode="&#xbd;" horiz-adv-x="1925" d="M140 1116l245 249h141v-819h-102v727l-213 -220zM447 0l922 1365h108l-926 -1365h-104zM1179 0v160q0 130 54 171q56 41 259 63q157 16 190 43q31 25 31 142q0 101 -36 130q-37 29 -167 29q-146 0 -185 -24q-39 -25 -38 -115l1 -68h-108l1 49q2 73 17.5 122t48.5 74 q66 51 257 51q186 0 248 -53q63 -53 63 -208q0 -147 -58 -198q-60 -51 -247 -67q-161 -15 -192 -41q-29 -26 -29 -148v-20h523v-92h-633z" />
<glyph unicode="&#xbe;" horiz-adv-x="1924" d="M76 822h108v-54q0 -137 125 -139l140 -2l93 7q45 3 66.5 42t21.5 107q0 135 -179 135h-82h-44v93l40 -1q88 -2 140 3.5t71 15.5q37 19 37 108q0 102 -32 125q-31 22 -183 22q-143 0 -172 -22q-30 -23 -30 -124v-34h-105v39q0 141 59 185q60 45 247 45q97 0 160.5 -11 t94.5 -31q63 -42 63 -169q0 -174 -117 -196q134 -23 134 -188q0 -144 -64 -192q-65 -48 -255 -48q-206 0 -271 44q-32 23 -47.5 69t-17.5 117zM515 0l921 1365h109l-927 -1365h-103zM1142 186v118l440 515h152v-541h129v-92h-129v-186h-102v186h-490zM1245 278h387v460z" />
<glyph unicode="&#xbf;" horiz-adv-x="1064" d="M102 -51q0 311 194 381l83 30q138 49 138 168v34h151l-1 -30q-2 -69 -10.5 -116.5t-27.5 -74.5q-37 -53 -171 -104l-83 -32q-126 -48 -126 -242q0 -170 46 -213q47 -44 230 -44q187 0 236 47q49 46 49 226v39h144v-45q0 -245 -87 -321q-85 -76 -365 -76q-234 0 -317 77 t-83 296zM517 772v184h154v-184h-154z" />
<glyph unicode="&#xc0;" horiz-adv-x="1246" d="M10 0l500 1365h216l510 -1365h-161l-106 289h-691l-105 -289h-163zM322 405h602l-303 834zM362 1630l60 111l298 -186l-50 -79z" />
<glyph unicode="&#xc1;" horiz-adv-x="1246" d="M10 0l500 1365h216l510 -1365h-161l-106 289h-691l-105 -289h-163zM322 405h602l-303 834zM526 1555l297 186l61 -111l-308 -154z" />
<glyph unicode="&#xc2;" horiz-adv-x="1246" d="M10 0l500 1365h216l510 -1365h-161l-106 289h-691l-105 -289h-163zM306 1553l321 182l313 -182l-43 -77l-270 124l-283 -124zM322 405h602l-303 834z" />
<glyph unicode="&#xc3;" horiz-adv-x="1246" d="M10 0l500 1365h216l510 -1365h-161l-106 289h-691l-105 -289h-163zM322 405h602l-303 834zM328 1561q73 136 173 136q41 0 136 -39q93 -38 123 -38q56 0 107 78l78 -51q-84 -136 -188 -136q-42 0 -138 41q-84 36 -123 36q-46 0 -86 -73z" />
<glyph unicode="&#xc4;" horiz-adv-x="1246" d="M10 0l500 1365h216l510 -1365h-161l-106 289h-691l-105 -289h-163zM322 405h602l-303 834zM361 1530v130h154v-130h-154zM731 1530v130h154v-130h-154z" />
<glyph unicode="&#xc5;" horiz-adv-x="1246" d="M10 0l500 1365h216l510 -1365h-161l-106 289h-691l-105 -289h-163zM322 405h602l-303 834zM466 1618q0 157 157 157t157 -157t-157 -157t-157 157zM534 1618q0 -85 89 -85t89 85t-89 85t-89 -85z" />
<glyph unicode="&#xc6;" horiz-adv-x="1902" d="M-9 0l759 1365h1084v-130h-714v-468h682v-130h-682v-507h714v-130h-868v287h-637l-156 -287h-182zM401 417h565v818h-124z" />
<glyph unicode="&#xc7;" horiz-adv-x="1222" d="M76 685q0 354 21 446t120 164q115 84 501 84q261 0 351 -81q46 -41 67 -118.5t24 -194.5l1 -37h-153l-1 42q-2 83 -14.5 136t-39.5 76q-53 47 -241 47q-330 0 -403 -55t-73 -305q0 -576 49 -674q49 -99 335 -99q272 0 339 43q34 22 52 75.5t16 140.5l-2 81h153v-52 q0 -278 -95 -349q-95 -69 -478 -69q-343 0 -436 122q-93 123 -93 577zM502 -338l139 238l112 -63l-160 -224z" />
<glyph unicode="&#xc8;" horiz-adv-x="1020" d="M75 0v1365h877v-130h-723v-465h693v-130h-693v-510h723v-130h-877zM304 1630l60 111l297 -186l-50 -79z" />
<glyph unicode="&#xc9;" horiz-adv-x="1020" d="M75 0v1365h877v-130h-723v-465h693v-130h-693v-510h723v-130h-877zM399 1555l298 186l60 -111l-308 -154z" />
<glyph unicode="&#xca;" horiz-adv-x="1020" d="M75 0v1365h877v-130h-723v-465h693v-130h-693v-510h723v-130h-877zM206 1553l321 182l314 -182l-43 -77l-271 124l-283 -124z" />
<glyph unicode="&#xcb;" horiz-adv-x="1020" d="M75 0v1365h877v-130h-723v-465h693v-130h-693v-510h723v-130h-877zM262 1530v130h154v-130h-154zM632 1530v130h154v-130h-154z" />
<glyph unicode="&#xcc;" horiz-adv-x="416" d="M-53 1630l60 111l298 -186l-50 -79zM129 0v1365h154v-1365h-154z" />
<glyph unicode="&#xcd;" horiz-adv-x="416" d="M111 1555l297 186l61 -111l-308 -154zM130 0v1365h154v-1365h-154z" />
<glyph unicode="&#xce;" horiz-adv-x="416" d="M-82 1553l294 182l286 -182l-43 -77l-243 124l-256 -124zM130 0v1365h154v-1365h-154z" />
<glyph unicode="&#xcf;" horiz-adv-x="416" d="M21 1530v130h154v-130h-154zM130 0v1365h154v-1365h-154zM241 1530v130h154v-130h-154z" />
<glyph unicode="&#xd0;" horiz-adv-x="1337" d="M0 640v116h130v609h630q294 0 398 -129q104 -130 104 -494q0 -444 -93 -593t-370 -149h-669v640h-130zM284 130h443q246 0 317 98t71 437q0 371 -62 471q-62 99 -294 99h-475v-479h434v-116h-434v-510z" />
<glyph unicode="&#xd1;" horiz-adv-x="1426" d="M130 0v1365h252l499 -814l130 -214l65 -106l64 -107h4l-1 51l-1 52v102v1036h154v-1365h-253l-572 929l-93 153l-46 76l-46 76h-4l1 -51l1 -52v-102v-1029h-154zM418 1561q73 136 174 136q40 0 135 -39q93 -38 124 -38q54 0 107 78l78 -51q-84 -136 -189 -136 q-43 0 -137 41q-84 36 -124 36q-45 0 -85 -73z" />
<glyph unicode="&#xd2;" d="M47 683v96l2 129q2 137 31.5 229t90.5 142q122 100 458 100q386 0 484 -113q97 -112 97 -565q0 -487 -93 -601t-488 -114q-393 0 -488 113q-94 112 -94 584zM194 683q0 -424 55 -495q55 -72 379 -72t380 72q55 71 55 495v89l-1 129q-1 114 -19.5 185t-56.5 102 q-76 61 -358 61q-324 0 -379 -72q-55 -71 -55 -494zM409 1630l60 111l298 -186l-50 -79z" />
<glyph unicode="&#xd3;" d="M47 683v96l2 129q2 137 31.5 229t90.5 142q122 100 458 100q386 0 484 -113q97 -112 97 -565q0 -487 -93 -601t-488 -114q-393 0 -488 113q-94 112 -94 584zM194 683q0 -424 55 -495q55 -72 379 -72t380 72q55 71 55 495v89l-1 129q-1 114 -19.5 185t-56.5 102 q-76 61 -358 61q-324 0 -379 -72q-55 -71 -55 -494zM505 1555l297 186l60 -111l-308 -154z" />
<glyph unicode="&#xd4;" d="M47 683v96l2 129q2 137 31.5 229t90.5 142q122 100 458 100q386 0 484 -113q97 -112 97 -565q0 -487 -93 -601t-488 -114q-393 0 -488 113q-94 112 -94 584zM194 683q0 -424 55 -495q55 -72 379 -72t380 72q55 71 55 495v89l-1 129q-1 114 -19.5 185t-56.5 102 q-76 61 -358 61q-324 0 -379 -72q-55 -71 -55 -494zM312 1553l320 182l314 -182l-43 -77l-271 124l-282 -124z" />
<glyph unicode="&#xd5;" d="M47 683v96l2 129q2 137 31.5 229t90.5 142q122 100 458 100q386 0 484 -113q97 -112 97 -565q0 -487 -93 -601t-488 -114q-393 0 -488 113q-94 112 -94 584zM194 683q0 -424 55 -495q55 -72 379 -72t380 72q55 71 55 495v89l-1 129q-1 114 -19.5 185t-56.5 102 q-76 61 -358 61q-324 0 -379 -72q-55 -71 -55 -494zM341 1561q75 136 174 136q40 0 135 -39q93 -38 124 -38q56 0 107 78l78 -51q-84 -136 -188 -136q-42 0 -138 41q-84 36 -124 36q-45 0 -85 -73z" />
<glyph unicode="&#xd6;" d="M47 683v96l2 129q2 137 31.5 229t90.5 142q122 100 458 100q386 0 484 -113q97 -112 97 -565q0 -487 -93 -601t-488 -114q-393 0 -488 113q-94 112 -94 584zM194 683q0 -424 55 -495q55 -72 379 -72t380 72q55 71 55 495v89l-1 129q-1 114 -19.5 185t-56.5 102 q-76 61 -358 61q-324 0 -379 -72q-55 -71 -55 -494zM367 1530v130h154v-130h-154zM737 1530v130h154v-130h-154z" />
<glyph unicode="&#xd7;" d="M194 344l339 339l-339 338l95 96l339 -339l339 339l95 -96l-339 -338l339 -339l-95 -95l-339 338l-339 -338z" />
<glyph unicode="&#xd8;" horiz-adv-x="1289" d="M20 7v152l76 73q-34 114 -34 469q0 458 98 568t510 110q371 0 469 -137l129 125v-152l-79 -77q37 -117 37 -406q0 -521 -88 -633q-87 -113 -490 -113q-390 0 -503 143zM209 801q0 -327 15 -444l807 781q-41 75 -109 93q-69 18 -317 18q-273 0 -334 -70q-62 -71 -62 -378z M256 235q42 -83 110 -101q69 -18 342 -18q233 0 301 68q69 69 69 303l1 327l-8 145q-1 18 -9 56z" />
<glyph unicode="&#xd9;" horiz-adv-x="1341" d="M131 363v46v956h154v-956q0 -195 63 -244q62 -49 310 -49q268 0 334 48q66 49 66 245v956h154v-956q0 -260 -105 -342q-104 -81 -438 -81q-314 0 -426 78q-112 79 -112 299zM451 1630l60 111l298 -186l-50 -79z" />
<glyph unicode="&#xda;" horiz-adv-x="1341" d="M131 363v46v956h154v-956q0 -195 63 -244q62 -49 310 -49q268 0 334 48q66 49 66 245v956h154v-956q0 -260 -105 -342q-104 -81 -438 -81q-314 0 -426 78q-112 79 -112 299zM547 1555l297 186l60 -111l-307 -154z" />
<glyph unicode="&#xdb;" horiz-adv-x="1341" d="M131 363v46v956h154v-956q0 -195 63 -244q62 -49 310 -49q268 0 334 48q66 49 66 245v956h154v-956q0 -260 -105 -342q-104 -81 -438 -81q-314 0 -426 78q-112 79 -112 299zM354 1553l321 182l313 -182l-43 -77l-270 124l-283 -124z" />
<glyph unicode="&#xdc;" horiz-adv-x="1341" d="M131 363v46v956h154v-956q0 -195 63 -244q62 -49 310 -49q268 0 334 48q66 49 66 245v956h154v-956q0 -260 -105 -342q-104 -81 -438 -81q-314 0 -426 78q-112 79 -112 299zM409 1530v130h154v-130h-154zM779 1530v130h154v-130h-154z" />
<glyph unicode="&#xdd;" horiz-adv-x="1152" d="M-10 1365h179l293 -461l56 -89q5 -8 12.5 -19t15.5 -25l27 -45h4l27 45l27 44l57 89l292 461h183l-516 -795v-570h-154v570zM479 1555l297 186l61 -111l-308 -154z" />
<glyph unicode="&#xde;" horiz-adv-x="1208" d="M130 0v1365h154v-191h419h52q231 0 315 -89t84 -334q0 -236 -88 -321q-44 -43 -125.5 -63t-202.5 -22l-60 -1h-394v-344h-154zM284 474h365q229 0 294 47q64 48 64 217q0 199 -44 252q-22 26 -73 38.5t-133 14.5l-59 1h-414v-570z" />
<glyph unicode="&#xdf;" horiz-adv-x="1073" d="M130 0v1055v40q0 284 373 284q378 0 378 -269q0 -184 -178 -227v-2q151 -31 202 -117q52 -85 52 -306q0 -262 -71 -368q-71 -104 -251 -104q-135 0 -206.5 71.5t-63.5 214.5l1 20h137l1 -29q3 -81 34.5 -121t97.5 -40q108 0 141 68q33 67 33 288q0 216 -56 289 q-55 73 -219 73h-78h-39v121h32l50 1q118 2 176 37t58 108q0 110 -45 143q-22 16 -70.5 24.5t-124.5 8.5q-224 0 -224 -195v-1068h-140z" />
<glyph unicode="&#xe0;" horiz-adv-x="1044" d="M89 277q0 173 81 239t293 66q252 0 302 -99l3 1v116q0 164 -45 212q-45 49 -197 49q-258 0 -258 -145v-10.5t1 -17.5h-139q0 167 75 224q76 58 296 58q238 0 323 -71q84 -71 84 -268v-631h-140l11 103l-3 1q-79 -118 -325 -118q-362 0 -362 291zM236 293q0 -117 48 -154 q47 -37 195 -37q296 0 296 180q0 113 -58 152q-57 39 -223 39q-161 0 -210 -34q-48 -35 -48 -146zM297 1253l72 98l271 -205l-49 -74z" />
<glyph unicode="&#xe1;" horiz-adv-x="1044" d="M89 277q0 173 81 239t293 66q252 0 302 -99l3 1v116q0 164 -45 212q-45 49 -197 49q-258 0 -258 -145v-10.5t1 -17.5h-139q0 167 75 224q76 58 296 58q238 0 323 -71q84 -71 84 -268v-631h-140l11 103l-3 1q-79 -118 -325 -118q-362 0 -362 291zM236 293q0 -117 48 -154 q47 -37 195 -37q296 0 296 180q0 113 -58 152q-57 39 -223 39q-161 0 -210 -34q-48 -35 -48 -146zM406 1146l271 205l72 -98l-295 -181z" />
<glyph unicode="&#xe2;" horiz-adv-x="1044" d="M89 277q0 173 81 239t293 66q252 0 302 -99l3 1v116q0 164 -45 212q-45 49 -197 49q-258 0 -258 -145v-10.5t1 -17.5h-139q0 167 75 224q76 58 296 58q238 0 323 -71q84 -71 84 -268v-631h-140l11 103l-3 1q-79 -118 -325 -118q-362 0 -362 291zM236 293q0 -117 48 -154 q47 -37 195 -37q296 0 296 180q0 113 -58 152q-57 39 -223 39q-161 0 -210 -34q-48 -35 -48 -146zM247 1144l263 209l262 -209l-56 -71l-206 152l-206 -152z" />
<glyph unicode="&#xe3;" horiz-adv-x="1044" d="M89 277q0 173 81 239t293 66q252 0 302 -99l3 1v116q0 164 -45 212q-45 49 -197 49q-258 0 -258 -145v-10.5t1 -17.5h-139q0 167 75 224q76 58 296 58q238 0 323 -71q84 -71 84 -268v-631h-140l11 103l-3 1q-79 -118 -325 -118q-362 0 -362 291zM236 289q0 -115 48 -151 q49 -36 207 -36q284 0 284 176q0 110 -58 149q-59 39 -223 39q-161 0 -210 -34q-48 -33 -48 -143zM246 1155q73 124 163 124q43 0 124 -34q87 -36 110 -36q39 0 76 67l80 -50q-71 -126 -159 -126q-47 0 -126 36q-77 34 -109 34q-42 0 -79 -66z" />
<glyph unicode="&#xe4;" horiz-adv-x="1044" d="M89 277q0 173 81 239t293 66q252 0 302 -99l3 1v116q0 164 -45 212q-45 49 -197 49q-258 0 -258 -145v-10.5t1 -17.5h-139q0 167 75 224q76 58 296 58q238 0 323 -71q84 -71 84 -268v-631h-140l11 103l-3 1q-79 -118 -325 -118q-362 0 -362 291zM236 293q0 -117 48 -154 q47 -37 195 -37q296 0 296 180q0 113 -58 152q-57 39 -223 39q-161 0 -210 -34q-48 -35 -48 -146zM248 1126v130h154v-130h-154zM618 1126v130h154v-130h-154z" />
<glyph unicode="&#xe5;" horiz-adv-x="1044" d="M89 277q0 173 81 239t293 66q252 0 302 -99l3 1v116q0 164 -45 212q-45 49 -197 49q-258 0 -258 -145v-10.5t1 -17.5h-139q0 167 75 224q76 58 296 58q238 0 323 -71q84 -71 84 -268v-631h-140l11 103l-3 1q-79 -118 -325 -118q-362 0 -362 291zM236 293q0 -117 48 -154 q47 -37 195 -37q296 0 296 180q0 113 -58 152q-57 39 -223 39q-161 0 -210 -34q-48 -35 -48 -146zM353 1208q0 157 157 157t157 -157t-157 -157t-157 157zM421 1208q0 -85 89 -85t89 85t-89 85t-89 -85z" />
<glyph unicode="&#xe6;" horiz-adv-x="1697" d="M89 279q0 164 84 227q85 64 304 64q233 0 296 -97h3v162q0 138 -51 182q-50 44 -208 44q-245 0 -245 -142v-21h-148q13 167 81 220q68 52 277 52q318 0 369 -123h3q69 123 333 123q249 0 330 -87q41 -43 60 -130t21 -221l1 -69h-681v-40q0 -212 49 -267q49 -54 241 -54 q153 0 200 31q24 16 35 48.5t13 82.5l1 25h142v-40q0 -263 -408 -263q-290 0 -352 161h-3q-62 -161 -347 -161q-400 0 -400 293zM236 286q0 -109 55 -146q56 -38 212 -38q274 0 274 180q0 100 -63 136q-31 17 -90.5 26.5t-149.5 9.5q-238 0 -238 -168zM917 579h540l-1 48 q-2 67 -14.5 112t-39.5 68q-53 47 -207 47q-161 0 -220 -50q-29 -25 -42 -72.5t-15 -118.5z" />
<glyph unicode="&#xe7;" horiz-adv-x="993" d="M95 483q0 284 84 385q85 102 322 102q232 0 318 -69q85 -67 85 -257h-140v25q0 111 -55 148t-219 37q-158 0 -203 -70q-45 -71 -45 -314q0 -239 51 -303q53 -65 241 -65q159 0 203 42q43 43 43 201h140l1 -52q3 -155 -98.5 -231t-303.5 -76q-259 0 -341 97 q-83 98 -83 400zM385 -307l121 207l98 -54l-140 -195z" />
<glyph unicode="&#xe8;" horiz-adv-x="1029" d="M95 488q0 286 83 384t325 98q264 0 346 -85t82 -358v-75h-688q0 -227 48 -288q50 -62 227 -62q169 0 219 29q51 30 51 128v30h143l1 -35q2 -75 -21.5 -127t-69.5 -82q-91 -59 -317 -59q-265 0 -347 96q-82 97 -82 406zM245 561h543l-1 45q-2 78 -13.5 128t-37.5 73 q-52 47 -220 47q-170 0 -221 -55q-50 -55 -50 -238zM302 1253l72 98l271 -205l-49 -74z" />
<glyph unicode="&#xe9;" horiz-adv-x="1029" d="M95 488q0 286 83 384t325 98q264 0 346 -85t82 -358v-75h-688q0 -227 48 -288q50 -62 227 -62q169 0 219 29q51 30 51 128v30h143l1 -35q2 -75 -21.5 -127t-69.5 -82q-91 -59 -317 -59q-265 0 -347 96q-82 97 -82 406zM245 561h543l-1 45q-2 78 -13.5 128t-37.5 73 q-52 47 -220 47q-170 0 -221 -55q-50 -55 -50 -238zM411 1146l271 205l72 -98l-295 -181z" />
<glyph unicode="&#xea;" horiz-adv-x="1029" d="M95 488q0 286 83 384t325 98q264 0 346 -85t82 -358v-75h-688q0 -227 48 -288q50 -62 227 -62q169 0 219 29q51 30 51 128v30h143l1 -35q2 -75 -21.5 -127t-69.5 -82q-91 -59 -317 -59q-265 0 -347 96q-82 97 -82 406zM245 561h543l-1 45q-2 78 -13.5 128t-37.5 73 q-52 47 -220 47q-170 0 -221 -55q-50 -55 -50 -238zM265 1144l263 209l262 -209l-56 -71l-206 152l-206 -152z" />
<glyph unicode="&#xeb;" horiz-adv-x="1029" d="M95 488q0 286 83 384t325 98q264 0 346 -85t82 -358v-75h-688q0 -227 48 -288q50 -62 227 -62q169 0 219 29q51 30 51 128v30h143l1 -35q2 -75 -21.5 -127t-69.5 -82q-91 -59 -317 -59q-265 0 -347 96q-82 97 -82 406zM245 561h543l-1 45q-2 78 -13.5 128t-37.5 73 q-52 47 -220 47q-170 0 -221 -55q-50 -55 -50 -238zM266 1126v130h154v-130h-154zM636 1126v130h154v-130h-154z" />
<glyph unicode="&#xec;" horiz-adv-x="385" d="M-46 1253l72 98l271 -205l-49 -74zM123 0v956h140v-956h-140z" />
<glyph unicode="&#xed;" horiz-adv-x="385" d="M90 1146l271 205l72 -98l-295 -181zM123 0v956h140v-956h-140z" />
<glyph unicode="&#xee;" horiz-adv-x="385" d="M-43 1144l235 209l236 -209l-57 -71l-179 152l-178 -152zM123 0v956h140v-956h-140z" />
<glyph unicode="&#xef;" horiz-adv-x="385" d="M-16 1126v130h154v-130h-154zM123 0v956h140v-956h-140zM248 1126v130h154v-130h-154z" />
<glyph unicode="&#xf0;" horiz-adv-x="1036" d="M96 478q0 309 79 400q80 92 344 92q68 0 137 -6l-125 183l-195 -108l-46 83l187 104l-96 139h139l57 -83l179 98l46 -83l-170 -94l211 -307q98 -143 98 -418q0 -309 -79 -400q-80 -92 -344 -92q-263 0 -343 92q-79 91 -79 400zM243 478q0 -256 44 -316q43 -60 231 -60 q187 0 231 60q45 61 45 316q0 253 -45 315q-45 61 -231 61t-231 -61q-44 -61 -44 -315z" />
<glyph unicode="&#xf1;" horiz-adv-x="1056" d="M123 0v956h135l-4 -130l4 -3q64 147 318 147q205 0 277 -72q73 -72 73 -276v-622h-140v610v36q0 123 -47 165q-46 43 -181 43q-295 0 -295 -279v-575h-140zM264 1155q73 124 163 124q43 0 124 -34q87 -36 110 -36q39 0 76 67l80 -50q-71 -126 -159 -126q-47 0 -126 36 q-77 34 -109 34q-42 0 -79 -66z" />
<glyph unicode="&#xf2;" horiz-adv-x="1036" d="M96 478q0 309 79 400q80 92 343 92q264 0 344 -92q79 -91 79 -400t-79 -400q-80 -92 -344 -92q-263 0 -343 92q-79 91 -79 400zM243 478q0 -256 44 -316q43 -60 231 -60q187 0 231 60q45 61 45 316q0 253 -45 315q-45 61 -231 61t-231 -61q-44 -61 -44 -315zM306 1253 l72 98l271 -205l-49 -74z" />
<glyph unicode="&#xf3;" horiz-adv-x="1036" d="M96 478q0 309 79 400q80 92 343 92q264 0 344 -92q79 -91 79 -400t-79 -400q-80 -92 -344 -92q-263 0 -343 92q-79 91 -79 400zM243 478q0 -256 44 -316q43 -60 231 -60q187 0 231 60q45 61 45 316q0 253 -45 315q-45 61 -231 61t-231 -61q-44 -61 -44 -315zM401 1146 l271 205l72 -98l-295 -181z" />
<glyph unicode="&#xf4;" horiz-adv-x="1036" d="M96 478q0 309 79 400q80 92 343 92q264 0 344 -92q79 -91 79 -400t-79 -400q-80 -92 -344 -92q-263 0 -343 92q-79 91 -79 400zM243 478q0 -256 44 -316q43 -60 231 -60q187 0 231 60q45 61 45 316q0 253 -45 315q-45 61 -231 61t-231 -61q-44 -61 -44 -315zM255 1144 l263 209l262 -209l-56 -71l-206 152l-206 -152z" />
<glyph unicode="&#xf5;" horiz-adv-x="1036" d="M96 478q0 309 79 400q80 92 343 92q264 0 344 -92q79 -91 79 -400t-79 -400q-80 -92 -344 -92q-263 0 -343 92q-79 91 -79 400zM243 478q0 -256 44 -316q43 -60 231 -60q187 0 231 60q45 61 45 316q0 253 -45 315q-45 61 -231 61t-231 -61q-44 -61 -44 -315zM262 1155 q73 124 163 124q43 0 124 -34q87 -36 110 -36q39 0 76 67l80 -50q-71 -126 -159 -126q-47 0 -126 36q-77 34 -109 34q-42 0 -79 -66z" />
<glyph unicode="&#xf6;" horiz-adv-x="1036" d="M96 478q0 309 79 400q80 92 343 92q264 0 344 -92q79 -91 79 -400t-79 -400q-80 -92 -344 -92q-263 0 -343 92q-79 91 -79 400zM243 478q0 -256 44 -316q43 -60 231 -60q187 0 231 60q45 61 45 316q0 253 -45 315q-45 61 -231 61t-231 -61q-44 -61 -44 -315zM257 1126 v130h154v-130h-154zM627 1126v130h154v-130h-154z" />
<glyph unicode="&#xf7;" d="M155 617v130h946v-130h-946zM536 350q0 92 92 92q93 0 93 -92q0 -93 -93 -93q-92 0 -92 93zM536 1017q0 92 92 92q93 0 93 -92q0 -93 -93 -93q-92 0 -92 93z" />
<glyph unicode="&#xf8;" horiz-adv-x="1037" d="M59 -33v129l69 66q-33 97 -33 315q0 310 79 401q80 92 349 92q263 0 342 -100l112 108v-128l-68 -66q32 -96 32 -290q0 -312 -77 -410t-323 -98q-280 0 -365 93zM242 476q0 -57 2 -105.5t6 -91.5l513 493q-43 82 -224 82q-204 0 -251 -59q-46 -58 -46 -319zM278 178 q43 -76 217 -76q206 0 253 60q46 59 46 331q0 43 -1.5 86t-5.5 88z" />
<glyph unicode="&#xf9;" horiz-adv-x="1039" d="M123 320v636h140v-636q0 -131 43 -174q44 -44 169 -44q164 0 226 65q62 67 62 241v548h140v-956h-140l10 125l-3 3q-73 -142 -312 -142q-335 0 -335 334zM294 1253l72 98l271 -205l-49 -74z" />
<glyph unicode="&#xfa;" horiz-adv-x="1039" d="M123 320v636h140v-636q0 -131 43 -174q44 -44 169 -44q164 0 226 65q62 67 62 241v548h140v-956h-140l10 125l-3 3q-73 -142 -312 -142q-335 0 -335 334zM403 1146l271 205l72 -98l-295 -181z" />
<glyph unicode="&#xfb;" horiz-adv-x="1039" d="M123 320v636h140v-636q0 -131 43 -174q44 -44 169 -44q164 0 226 65q62 67 62 241v548h140v-956h-140l10 125l-3 3q-73 -142 -312 -142q-335 0 -335 334zM257 1144l263 209l262 -209l-56 -71l-206 152l-206 -152z" />
<glyph unicode="&#xfc;" horiz-adv-x="1039" d="M123 320v636h140v-636q0 -131 43 -174q44 -44 169 -44q164 0 226 65q62 67 62 241v548h140v-956h-140l10 125l-3 3q-73 -142 -312 -142q-335 0 -335 334zM258 1126v130h154v-130h-154zM628 1126v130h154v-130h-154z" />
<glyph unicode="&#xfd;" horiz-adv-x="796" d="M-7 956h149l147 -426l74 -212l36 -107l37 -106h4l26 106l25 107l54 212l108 426h149l-271 -1011q-57 -215 -127 -294q-69 -80 -198 -80q-13 0 -30 1.5t-37 5.5v116q14 -3 26.5 -4.5t22.5 -2.5q114 -6 168 183l27 94l9 36h-53zM309 1146l271 205l72 -98l-295 -181z" />
<glyph unicode="&#xfe;" horiz-adv-x="1045" d="M123 -411v1776h140v-530l4 -3q72 138 307 138q214 0 293 -109q80 -109 80 -397q0 -269 -81 -374q-81 -104 -288 -104q-236 0 -312 127h-3v-524h-140zM265 470q0 -222 55 -295t221 -73q158 0 208 71q51 70 51 293q0 245 -49 316q-50 72 -216 72q-168 0 -219 -73 q-51 -72 -51 -311z" />
<glyph unicode="&#xff;" horiz-adv-x="796" d="M-7 956h149l147 -426l74 -212l36 -107l37 -106h4l26 106l25 107l54 212l108 426h149l-271 -1011q-57 -215 -127 -294q-69 -80 -198 -80q-13 0 -30 1.5t-37 5.5v116q14 -3 26.5 -4.5t22.5 -2.5q114 -6 168 183l27 94l9 36h-53zM137 1126v130h154v-130h-154zM507 1126v130 h154v-130h-154z" />
<glyph unicode="&#x152;" horiz-adv-x="2020" d="M76 523q0 526 40 630q85 226 515 226q364 0 453 -156h4l-4 130h868v-130h-719v-453h689v-130h-689v-505h719v-130h-868l4 130h-4q-92 -149 -409 -149q-378 0 -489 99q-110 99 -110 438zM223 505q0 -52 2.5 -96t7.5 -80q18 -133 93 -173q76 -40 312 -40q285 0 361 59 q73 57 75 284l1 215l4 210l-7 141q-4 75 -30.5 121t-68.5 65q-84 38 -392 38q-260 0 -309 -84q-49 -82 -49 -519v-141z" />
<glyph unicode="&#x153;" horiz-adv-x="1714" d="M95 493q0 288 78 383q79 94 321 94q326 0 368 -139h3q61 139 340 139q246 0 329 -87q83 -86 83 -344v-76h-676l-1 -54q-2 -97 11.5 -159t39.5 -91q51 -57 225 -57q161 0 210 35q48 34 48 152h143q0 -187 -85 -245q-83 -58 -356 -58q-244 0 -311 135h-3 q-59 -135 -350 -135q-261 0 -339 94t-78 413zM242 478q0 -256 44 -316q43 -60 232 -60q187 0 231 60q45 61 45 316q0 253 -45 315q-43 61 -231 61q-187 0 -232 -61q-44 -61 -44 -315zM937 579h537q0 170 -49 222q-48 53 -203 53q-175 0 -231 -53q-54 -53 -54 -222z" />
<glyph unicode="&#x178;" horiz-adv-x="1152" d="M-10 1365h179l293 -461l56 -89q5 -8 12.5 -19t15.5 -25l27 -45h4l27 45l27 44l57 89l292 461h183l-516 -795v-570h-154v570zM314 1530v130h154v-130h-154zM684 1530v130h154v-130h-154z" />
<glyph unicode="&#x2c6;" horiz-adv-x="1024" d="M249 1144l263 209l262 -209l-56 -71l-206 152l-206 -152z" />
<glyph unicode="&#x2dc;" horiz-adv-x="1024" d="M235 1155q73 124 163 124q43 0 124 -34q87 -36 110 -36q39 0 76 67l80 -50q-71 -126 -159 -126q-47 0 -126 36q-77 34 -109 34q-42 0 -79 -66z" />
<glyph unicode="&#x2000;" horiz-adv-x="887" />
<glyph unicode="&#x2001;" horiz-adv-x="1775" />
<glyph unicode="&#x2002;" horiz-adv-x="887" />
<glyph unicode="&#x2003;" horiz-adv-x="1775" />
<glyph unicode="&#x2004;" horiz-adv-x="591" />
<glyph unicode="&#x2005;" horiz-adv-x="443" />
<glyph unicode="&#x2006;" horiz-adv-x="295" />
<glyph unicode="&#x2007;" horiz-adv-x="295" />
<glyph unicode="&#x2008;" horiz-adv-x="221" />
<glyph unicode="&#x2009;" horiz-adv-x="355" />
<glyph unicode="&#x200a;" horiz-adv-x="98" />
<glyph unicode="&#x2010;" horiz-adv-x="425" d="M0 432l3 130h422v-130h-425z" />
<glyph unicode="&#x2011;" horiz-adv-x="425" d="M0 432l3 130h422v-130h-425z" />
<glyph unicode="&#x2012;" horiz-adv-x="425" d="M0 432l3 130h422v-130h-425z" />
<glyph unicode="&#x2013;" d="M227 432v130h803v-130h-803z" />
<glyph unicode="&#x2014;" horiz-adv-x="1417" d="M0 432l9 130h1408v-130h-1417z" />
<glyph unicode="&#x2018;" horiz-adv-x="366" d="M86 1008v199q0 186 136 186q8 0 19 -0.5t27 -1.5v-77q-97 0 -94 -87l1 -35h65v-184h-154z" />
<glyph unicode="&#x2019;" horiz-adv-x="406" d="M123 981v77q43 2 65.5 24t20.5 64l-1 35h-65v184h154v-199q0 -187 -136 -187q-6 0 -15.5 0.5t-22.5 1.5z" />
<glyph unicode="&#x201a;" horiz-adv-x="406" d="M109 -123q43 2 65.5 24t20.5 64l-1 35h-65v184h154v-198q0 -187 -136 -187q-7 0 -16 0.5t-22 1.5v76z" />
<glyph unicode="&#x201c;" horiz-adv-x="653" d="M86 1008v199q0 186 136 186q8 0 19 -0.5t27 -1.5v-77q-97 0 -94 -87l1 -35h65v-184h-154zM381 1008v199q0 186 136 186q5 0 14.5 -0.5t23.5 -1.5v-77q-43 -2 -65.5 -23.5t-20.5 -63.5l1 -35h65v-184h-154z" />
<glyph unicode="&#x201d;" horiz-adv-x="653" d="M98 981v77q43 2 65.5 24t20.5 64l-1 35h-65v184h154v-199q0 -187 -136 -187q-6 0 -15.5 0.5t-22.5 1.5zM385 981v77q97 0 94 88l-1 35h-65v184h154v-199q0 -187 -136 -187q-8 0 -19.5 0.5t-26.5 1.5z" />
<glyph unicode="&#x201e;" horiz-adv-x="653" d="M98 -123q43 2 65.5 24t20.5 64l-1 35h-65v184h154v-198q0 -187 -136 -187q-7 0 -16 0.5t-22 1.5v76zM385 -123q97 0 94 88l-1 35h-65v184h154v-198q0 -187 -136 -187q-8 0 -20 0.5t-26 1.5v76z" />
<glyph unicode="&#x2022;" horiz-adv-x="568" d="M0 694q0 118 83 201q85 83 203 83q116 0 199 -84q83 -83 83 -200q0 -116 -83 -201q-83 -83 -199 -83q-117 0 -202 83q-84 84 -84 201z" />
<glyph unicode="&#x2026;" horiz-adv-x="1223" d="M123 0v184h154v-184h-154zM531 0v184h154v-184h-154zM946 0v184h154v-184h-154z" />
<glyph unicode="&#x202f;" horiz-adv-x="355" />
<glyph unicode="&#x2039;" horiz-adv-x="578" d="M102 525l246 522l105 -64l-215 -458l238 -459l-99 -66z" />
<glyph unicode="&#x203a;" horiz-adv-x="578" d="M102 66l238 459l-215 458l105 64l246 -522l-275 -525z" />
<glyph unicode="&#x205f;" horiz-adv-x="443" />
<glyph unicode="&#x20ac;" d="M9 496l30 130h67v59v70h-97l30 130h69q2 93 7 154t12 93q21 91 120 163q115 84 481 84q260 0 352 -81q84 -75 90 -313l1 -37h-153l-1 42q-4 169 -53 212q-53 47 -242 47q-310 0 -383 -55t-73 -305v-4h596l-30 -130h-565q0 -22 0.5 -54t1.5 -75h533l-30 -130h-498 q12 -221 41 -281q49 -99 315 -99q271 0 341 44q71 44 66 215l-2 81h153v-52q0 -210 -62 -302q-57 -84 -189 -105q-36 -6 -116 -8.5t-206 -2.5q-323 0 -416 123q-71 94 -88 387h-102z" />
<glyph unicode="&#x2122;" horiz-adv-x="1630" d="M-3 1273v92h617v-92h-257v-686h-102v686h-258zM680 587v778h166l213 -499l34 -80l16 -40l11 -26l12 26l16 40l34 80l212 499h168v-778h-102v618v15v31v14l-5 -12l-6 -15l-6 -14l-272 -637h-99l-272 629l-6 12l-6 14l-6 15v-18v-17v-17v-618h-102z" />
<glyph unicode="&#x25fc;" horiz-adv-x="955" d="M0 0v955h955v-955h-955z" />
</font>
</defs>
</svg>
